<svg id="Layer_1" data-name="Layer 1" xmlns="http://www.w3.org/2000/svg" viewBox="0 0 32.75 40.8"><defs><style>.cls-1{fill:#fff;}</style></defs><title>assets21</title><path class="cls-1" d="M20.6,23.45c.32,0,.63,0,.95-.05A9.2,9.2,0,0,0,26.89,21a.78.78,0,0,0,.26-.56.82.82,0,0,0-.24-.58l-2.66-2.66V11l1.11-1.11h0a1.18,1.18,0,1,0-.54-.54v0l-1.11,1.1H17.52L14.86,7.83a.78.78,0,0,0-.58-.23.75.75,0,0,0-.56.25,9.33,9.33,0,0,0-1.11,11,2,2,0,0,0-.5,1.28l-1.57,9h-.9a.78.78,0,0,0-.78.79v1.24H7.61a1.19,1.19,0,0,0-1.19,1.2v0H6a.38.38,0,1,0,0,.76H22.24a.38.38,0,0,0,0-.76h-.43v0a1.19,1.19,0,0,0-1.19-1.2H19.37V30a.79.79,0,0,0-.79-.79h-.89L16.52,22.5a9.19,9.19,0,0,0,4.08.95Zm5.3-15a.43.43,0,1,1-.43.43.43.43,0,0,1,.43-.43Zm-4.74,5.72,2.33-2.34v4.67ZM23,11.26l-2.33,2.33-2.33-2.33Zm-8.66-2.9h0l2.78,2.77h0l6.5,6.51h0l2.77,2.77a0,0,0,0,1,0,0h0c-.16.14-.33.29-.5.42l-12-12c.14-.18.28-.34.43-.51ZM13.42,9.5,25.25,21.33a8.59,8.59,0,0,1-8.89.22l-.24-1.37a2,2,0,0,0-2.91-1.75,8.58,8.58,0,0,1,.21-8.93ZM14.11,19a1.25,1.25,0,1,1-1.24,1.24A1.25,1.25,0,0,1,14.11,19Zm6.94,13.44v0H7.18v0A.44.44,0,0,1,7.61,32h13a.44.44,0,0,1,.43.44ZM18.61,30v1.24h-9V30s0,0,0,0h8.94a0,0,0,0,1,0,0Zm-7.29-.79,1.32-7.61a2,2,0,0,0,2.95,0l1.32,7.61Zm0,0"/><path class="cls-1" d="M14.11,20.6a.39.39,0,0,0,.27-.11.36.36,0,0,0,0-.54.39.39,0,0,0-.27-.11.4.4,0,0,0-.27.11.39.39,0,0,0,0,.54.4.4,0,0,0,.27.11Zm0,0"/></svg>