<svg id="Layer_1" data-name="Layer 1" xmlns="http://www.w3.org/2000/svg" viewBox="0 0 32.75 40.8"><defs><style>.cls-1{fill:#fff;}</style></defs><title>assets21</title><path class="cls-1" d="M4.31,25.3a.31.31,0,0,0,.13,0,.39.39,0,0,0,.36-.25,28.52,28.52,0,0,1,6.6-9.65.38.38,0,0,0-.54-.54,29.28,29.28,0,0,0-6.77,9.92.37.37,0,0,0,.22.49Zm0,0"/><path class="cls-1" d="M3.64,28.31h0A.37.37,0,0,0,4.06,28c0-.31.09-.64.16-1a.37.37,0,0,0-.29-.45.39.39,0,0,0-.45.29c-.08.36-.13.71-.17,1a.37.37,0,0,0,.33.42Zm0,0"/><path class="cls-1" d="M4.12,30a.38.38,0,1,0-.74.16A4.19,4.19,0,0,0,4.5,32.28a.39.39,0,0,0,.27.11A.43.43,0,0,0,5,32.28a.4.4,0,0,0,0-.54A3.45,3.45,0,0,1,4.12,30Zm0,0"/><path class="cls-1" d="M28.24,16a.38.38,0,0,0-.5.21,29.23,29.23,0,0,1-6.39,9.12.38.38,0,0,0,0,.54.35.35,0,0,0,.27.11.36.36,0,0,0,.27-.11,30.18,30.18,0,0,0,6.56-9.37.38.38,0,0,0-.21-.5Zm0,0"/><path class="cls-1" d="M29.11,12.49a.37.37,0,0,0-.42.33,11.85,11.85,0,0,1-.22,1.23.38.38,0,0,0,.28.46h.09a.38.38,0,0,0,.37-.29,9.64,9.64,0,0,0,.23-1.32.37.37,0,0,0-.33-.42Zm0,0"/><path class="cls-1" d="M28.63,10.85a.37.37,0,0,0,.37.3h.08a.37.37,0,0,0,.29-.45,4.19,4.19,0,0,0-1.12-2.17.38.38,0,0,0-.54,0,.4.4,0,0,0,0,.54,3.45,3.45,0,0,1,.92,1.79Zm0,0"/><path class="cls-1" d="M17.9,26.36c-4.62,3.78-9.24,5.26-11,3.51a.38.38,0,0,0-.54.54A3.58,3.58,0,0,0,9,31.36a8.46,8.46,0,0,0,2.46-.42,21.64,21.64,0,0,0,6.92-4,.38.38,0,0,0-.48-.59Zm0,0"/><path class="cls-1" d="M20.22,24.25c-.24.25-.49.49-.75.73a.38.38,0,0,0,0,.54.36.36,0,0,0,.27.12.36.36,0,0,0,.26-.11l.77-.74a.38.38,0,1,0-.54-.54Zm0,0"/><path class="cls-1" d="M14.61,14.53a.36.36,0,0,0,.24-.09c4.62-3.78,9.24-5.26,11-3.51a.38.38,0,0,0,.54-.54c-1.05-1.05-2.81-1.23-5.09-.53a21.64,21.64,0,0,0-6.92,4,.38.38,0,0,0,0,.54.37.37,0,0,0,.29.14Zm0,0"/><path class="cls-1" d="M12.26,16.66a.43.43,0,0,0,.27-.11c.24-.25.49-.49.75-.73a.38.38,0,0,0,0-.54.37.37,0,0,0-.53,0L12,16a.38.38,0,0,0,0,.54.39.39,0,0,0,.27.11Zm0,0"/><path class="cls-1" d="M13.86,28A.39.39,0,0,0,14,28a24.92,24.92,0,0,0,5.6-4.29,23.37,23.37,0,0,0,4.76-6.56c1-2.2,1-3.92.11-4.84a.38.38,0,0,0-.54.54c.67.67.57,2.12-.26,4a22.51,22.51,0,0,1-4.61,6.33,24.19,24.19,0,0,1-5.42,4.16.37.37,0,0,0-.16.51.38.38,0,0,0,.34.2Zm0,0"/><path class="cls-1" d="M13.65,17.67a24.79,24.79,0,0,1,5-3.89.38.38,0,0,0,.14-.52.37.37,0,0,0-.52-.14,25.34,25.34,0,0,0-5.11,4,23.37,23.37,0,0,0-4.76,6.56c-1,2.2-1,3.92-.11,4.84a.37.37,0,0,0,.27.12.36.36,0,0,0,.27-.12.38.38,0,0,0,0-.54c-.67-.67-.57-2.12.26-4a22.51,22.51,0,0,1,4.61-6.33Zm0,0"/><path class="cls-1" d="M13.65,23.87a2.73,2.73,0,0,0,1.33-.5,13,13,0,0,0,2.41-1.95,13.48,13.48,0,0,0,2-2.41c.55-.91.64-1.52.29-1.88-1-1-4,1.92-4.28,2.25s-3.24,3.3-2.25,4.29a.75.75,0,0,0,.54.2ZM14.16,22a13.28,13.28,0,0,1,1.74-2.1A12.85,12.85,0,0,1,18,18.18a2.76,2.76,0,0,1,1.08-.49,2.52,2.52,0,0,1-.49,1.09,13.28,13.28,0,0,1-1.74,2.1,12.85,12.85,0,0,1-2.1,1.74,2.76,2.76,0,0,1-1.08.49A2.52,2.52,0,0,1,14.16,22Zm0,0"/><path class="cls-1" d="M11.63,26.71c1.78,0,4.63-1.91,6.89-4.17,2.85-2.85,5.13-6.64,3.74-8s-5.17.89-8,3.75-5.13,6.64-3.74,8a1.55,1.55,0,0,0,1.14.42Zm-.21-3.49a18.08,18.08,0,0,1,3.35-4.42,17.9,17.9,0,0,1,4.42-3.36,4.78,4.78,0,0,1,1.93-.58.82.82,0,0,1,.6.19c.36.36.21,1.33-.39,2.53A18.08,18.08,0,0,1,18,22a17.9,17.9,0,0,1-4.42,3.36c-1.2.6-2.17.75-2.53.39s-.21-1.33.39-2.53Zm0,0"/></svg>