<svg version="1.1" id="Layer_1" xmlns="http://www.w3.org/2000/svg" x="0" y="0" viewBox="0 0 24.2 22.41" xml:space="preserve"><style>.st0{fill:#fff}</style><path class="st0" d="M12.86 10.21v-.03c-.01.01-.01.02-.02.03h.02z"/><path class="st0" d="M20.73 1.01H3.46c-.83 0-1.5.65-1.5 1.46v17.47c0 .81.67 1.46 1.5 1.46h17.27c.83 0 1.5-.65 1.5-1.46V2.47c0-.8-.67-1.46-1.5-1.46zM8.11 18.08H5.05V8.87h3.06v9.21zM6.58 7.62h-.02c-1.03 0-1.69-.71-1.69-1.59 0-.9.68-1.59 1.73-1.59 1.05 0 1.69.69 1.71 1.59 0 .88-.66 1.59-1.73 1.59zm12.56 10.46h-3.06v-4.93c0-1.24-.44-2.08-1.55-2.08-.85 0-1.35.57-1.57 1.12-.08.2-.1.47-.1.75v5.14H9.8s.04-8.34 0-9.21h3.06v1.3c.41-.63 1.13-1.52 2.76-1.52 2.01 0 3.52 1.32 3.52 4.14v5.29z"/></svg>