<svg id="Layer_1" data-name="Layer 1" xmlns="http://www.w3.org/2000/svg" viewBox="0 0 32 27.56"><defs><style>.cls-1{fill:#fff;}</style></defs><title>redes</title><path class="cls-1" d="M22.28,3.54H9.72a4,4,0,0,0-4,4V20.06a4,4,0,0,0,4,4H22.28a4,4,0,0,0,4-4V7.5A4,4,0,0,0,22.28,3.54ZM23.42,5.9h.45V9.37H20.41V5.91ZM13.08,11.68a3.58,3.58,0,0,1,5.84,0,3.55,3.55,0,0,1,.69,2.1,3.61,3.61,0,0,1-7.22,0A3.55,3.55,0,0,1,13.08,11.68Zm11.17,8.38a2,2,0,0,1-2,2H9.72a2,2,0,0,1-2-2V11.68h3.06a5.6,5.6,0,1,0,10.38,0h3.06Z"/></svg>