<svg data-name="Layer 1" xmlns="http://www.w3.org/2000/svg" viewBox="0 0 24.2 22.41"><path d="M22.2 4.94a8.41 8.41 0 0 1-2.38.66 4.21 4.21 0 0 0 1.82-2.3 8.3 8.3 0 0 1-2.63 1 4.15 4.15 0 0 0-7.17 2.83 4.26 4.26 0 0 0 .11 1 11.76 11.76 0 0 1-8.54-4.37 4.07 4.07 0 0 0-.56 2.08 4.14 4.14 0 0 0 1.84 3.45 4.13 4.13 0 0 1-1.88-.52v.05a4.15 4.15 0 0 0 3.33 4.07A4.42 4.42 0 0 1 5 13a4.11 4.11 0 0 1-.74 0 4.17 4.17 0 0 0 3.87 2.88A8.29 8.29 0 0 1 3 17.61a8 8 0 0 1-1-.06 11.67 11.67 0 0 0 6.35 1.86A11.71 11.71 0 0 0 20.14 7.62v-.53a8.63 8.63 0 0 0 2.06-2.15z" fill="#fff"/></svg>